<?xml version="1.0" standalone="no"?>
<!DOCTYPE svg PUBLIC "-//W3C//DTD SVG 20010904//EN"
 "http://www.w3.org/TR/2001/REC-SVG-20010904/DTD/svg10.dtd">
<svg version="1.0" xmlns="http://www.w3.org/2000/svg"
 width="1778.000000pt" height="903.000000pt" viewBox="0 0 1778.000000 903.000000"
 preserveAspectRatio="xMidYMid meet">

<g transform="translate(0.000000,903.000000) scale(0.100000,-0.100000)"
fill="#000000" stroke="none">
<path d="M1058 9019 c-17 -9 -18 -58 -18 -794 0 -742 -1 -786 -19 -844 -33
-107 -95 -166 -200 -191 -108 -26 -233 15 -295 95 -30 40 -43 74 -61 158 l-5
27 -226 0 -226 0 7 -72 c28 -308 210 -517 515 -594 104 -26 342 -26 455 0 258
59 425 218 496 472 22 78 22 87 26 904 4 778 3 825 -13 837 -22 16 -409 18
-436 2z"/>
<path d="M2353 8474 c-164 -36 -316 -125 -395 -230 -48 -63 -89 -163 -95 -237
l-6 -57 204 2 204 3 18 40 c46 99 127 147 256 153 97 5 141 -6 199 -48 58 -41
80 -91 88 -193 6 -70 4 -85 -9 -90 -8 -3 -75 -8 -148 -12 -441 -20 -620 -64
-754 -186 -121 -112 -165 -318 -105 -494 25 -72 58 -121 122 -182 103 -96 232
-143 397 -143 196 0 342 66 466 210 l30 35 6 -30 c4 -16 7 -67 8 -113 l1 -82
213 2 212 3 0 615 0 615 -23 65 c-12 36 -37 86 -55 113 -72 103 -221 200 -364
234 -92 22 -383 26 -470 7z m466 -943 c25 -16 7 -173 -27 -234 -79 -145 -293
-211 -448 -138 -79 37 -109 82 -109 161 0 75 29 121 100 155 60 30 131 41 325
54 74 4 137 9 140 9 3 1 11 -2 19 -7z"/>
<path d="M4315 8471 c-33 -10 -79 -27 -101 -39 -62 -32 -149 -116 -186 -180
l-33 -57 -5 130 -5 130 -215 0 -215 0 0 -815 0 -815 220 0 220 0 5 530 c4 361
9 540 17 563 43 122 139 191 265 192 111 0 188 -46 232 -140 20 -44 21 -62 26
-595 l5 -550 212 -3 212 -2 3 532 c4 612 2 593 92 683 59 58 103 75 198 75
107 0 187 -53 234 -155 5 -11 11 -270 14 -575 l5 -555 222 -3 223 -2 5 23 c4
13 5 287 2 608 -3 502 -6 593 -20 647 -53 199 -193 336 -386 377 -248 52 -492
-43 -601 -234 -19 -33 -38 -61 -42 -61 -3 0 -18 26 -33 57 -55 120 -145 196
-276 233 -91 25 -211 25 -294 1z"/>
<path d="M6785 8475 c-248 -56 -419 -191 -519 -410 -61 -131 -81 -238 -81
-430 0 -142 4 -185 23 -261 71 -292 253 -483 527 -555 76 -19 115 -23 250 -23
102 -1 180 4 215 13 206 50 357 148 449 291 40 62 86 192 77 216 -4 11 -40 14
-205 14 l-200 0 -27 -45 c-35 -60 -89 -105 -162 -134 -84 -32 -221 -28 -302
10 -68 32 -133 97 -165 165 -27 57 -51 182 -37 196 5 5 252 8 549 8 297 0 548
2 557 6 20 8 21 92 5 246 -20 188 -65 312 -157 433 -98 129 -217 206 -388 250
-79 21 -118 25 -223 24 -69 0 -153 -7 -186 -14z m330 -349 c93 -44 174 -155
191 -263 l6 -42 -332 -3 c-182 -2 -336 0 -342 3 -17 11 19 126 57 182 69 105
147 145 280 146 75 1 98 -3 140 -23z"/>
<path d="M8395 8471 c-288 -70 -434 -221 -452 -466 -14 -197 73 -341 262 -430
84 -40 230 -80 460 -125 135 -27 214 -72 235 -135 23 -70 -15 -137 -98 -177
-40 -19 -64 -22 -157 -22 -92 0 -117 3 -155 21 -58 28 -110 82 -130 136 l-16
42 -222 3 -222 2 6 -42 c36 -241 216 -409 504 -469 94 -20 375 -18 465 3 235
55 389 171 455 343 33 87 33 245 0 329 -61 157 -205 238 -540 306 -271 55
-348 83 -387 142 -52 78 -20 162 80 208 52 25 75 30 138 30 105 0 158 -20 214
-82 26 -29 47 -64 51 -83 3 -19 12 -39 19 -45 8 -7 81 -9 206 -8 l194 3 3 46
c2 28 -5 72 -18 110 -60 180 -214 307 -433 359 -114 26 -355 27 -462 1z"/>
<path d="M158 5439 c-17 -9 -18 -72 -18 -1092 0 -595 4 -1088 8 -1095 7 -10
156 -12 713 -10 l704 3 0 190 0 190 -475 5 -475 5 -3 899 c-2 705 -5 902 -15
908 -18 12 -419 9 -439 -3z"/>
<path d="M2360 4904 c-313 -54 -536 -262 -610 -569 -58 -238 -36 -526 54 -715
91 -190 241 -314 456 -378 75 -22 105 -25 250 -26 215 -1 306 19 460 102 80
44 199 161 236 234 29 57 66 177 58 190 -3 4 -95 8 -205 8 l-199 0 -30 -49
c-35 -57 -78 -92 -156 -128 -49 -22 -65 -24 -157 -21 -85 2 -111 7 -152 28
-110 55 -188 173 -201 303 -5 54 -4 67 7 67 8 0 255 0 549 0 301 0 541 4 549
9 23 15 7 302 -23 411 -70 256 -245 439 -486 510 -59 18 -107 23 -225 25 -82
2 -161 1 -175 -1z m302 -363 c91 -46 163 -150 175 -251 l6 -50 -327 0 c-179 0
-329 1 -333 3 -16 5 -6 75 19 128 35 78 92 137 163 171 55 27 68 29 155 26 77
-2 104 -8 142 -27z"/>
<path d="M4067 4900 c-291 -52 -511 -262 -587 -560 -58 -228 -40 -508 46 -703
86 -196 242 -329 464 -395 75 -22 105 -25 250 -26 172 -1 235 8 340 47 208 77
355 230 405 418 7 30 10 57 6 62 -4 4 -97 6 -207 5 l-199 -3 -20 -34 c-33 -56
-86 -102 -154 -133 -60 -28 -71 -30 -165 -26 -113 3 -160 20 -234 84 -57 49
-110 158 -118 247 -5 54 -4 67 7 67 8 0 255 0 549 0 301 0 541 4 549 9 23 15
7 302 -23 411 -69 255 -245 439 -486 510 -59 17 -106 23 -225 25 -82 2 -171 0
-198 -5z m327 -360 c57 -29 115 -92 146 -157 25 -54 39 -143 21 -143 -6 0
-156 0 -333 0 l-323 -1 -3 30 c-4 40 51 157 96 204 72 75 131 97 252 94 79 -2
103 -6 144 -27z"/>
<path d="M3975 1718 c-147 -12 -270 -69 -354 -164 -114 -130 -116 -355 -3
-478 39 -41 125 -95 188 -116 30 -11 121 -33 202 -51 232 -49 291 -84 299
-176 6 -66 -23 -108 -102 -148 -53 -27 -70 -30 -151 -30 -84 0 -96 3 -160 35
-60 31 -71 41 -94 87 l-25 52 -136 0 -136 1 9 -54 c27 -178 173 -307 385 -342
327 -53 590 50 674 264 18 44 23 79 23 152 1 88 -1 100 -32 162 -62 127 -170
181 -496 248 -158 32 -228 75 -242 145 -18 97 64 173 197 183 81 6 156 -11
201 -44 36 -27 78 -89 78 -116 0 -16 13 -18 136 -18 l137 0 -7 58 c-27 237
-264 378 -591 350z"/>
<path d="M80 1020 l0 -680 140 0 139 0 6 33 c4 18 5 137 3 265 -2 186 0 233
10 237 8 3 133 5 278 5 l264 0 0 110 0 110 -275 0 c-176 0 -275 4 -275 10 -1
6 -1 85 -1 178 l-1 167 299 5 298 5 3 118 3 117 -446 0 -445 0 0 -680z"/>
<path d="M2230 1020 l0 -680 135 0 135 0 0 680 0 680 -135 0 -135 0 0 -680z"/>
<path d="M2690 1020 l0 -680 140 0 140 0 0 680 0 680 -140 0 -140 0 0 -680z"/>
<path d="M7530 1020 l0 -680 140 0 140 0 0 168 1 167 29 33 c16 17 33 32 37
32 5 0 71 -90 147 -200 l140 -200 158 0 c87 0 158 2 158 5 0 3 -88 132 -197
287 -172 246 -195 283 -184 300 6 10 85 101 174 201 89 100 168 190 176 200
13 16 4 17 -145 17 l-159 -1 -159 -189 c-88 -105 -164 -190 -168 -190 -4 0 -9
163 -10 363 l-3 362 -137 3 -138 3 0 -681z"/>
<path d="M8965 1688 c-3 -7 -4 -312 -3 -678 l3 -665 325 0 c358 1 387 4 520
67 85 41 195 149 239 237 58 115 74 196 75 376 0 189 -14 258 -75 376 -79 151
-222 252 -403 284 -116 20 -674 22 -681 3z m609 -243 c66 -20 128 -57 162 -97
140 -167 132 -524 -17 -667 -80 -77 -181 -104 -364 -99 l-100 3 -3 438 -2 437
137 0 c93 0 154 -5 187 -15z"/>
<path d="M13410 1020 l0 -680 135 0 135 0 0 680 0 680 -135 0 -135 0 0 -680z"/>
<path d="M4825 1578 c-3 -7 -6 -60 -7 -118 l-3 -105 -68 -3 -68 -3 3 -102 3
-102 68 -3 67 -3 0 -287 c1 -303 6 -354 45 -414 40 -61 117 -90 251 -96 62 -2
124 -2 138 2 26 6 26 7 26 106 l0 100 -50 0 c-61 0 -102 19 -118 55 -8 18 -12
104 -12 280 l0 255 90 0 90 0 0 105 0 105 -90 0 -90 0 0 114 c0 95 -3 115 -16
120 -9 3 -69 6 -135 6 -87 0 -121 -3 -124 -12z"/>
<path d="M5715 1356 c-153 -37 -264 -144 -281 -270 l-7 -46 127 0 c122 0 127
1 136 23 26 63 85 98 168 98 71 1 102 -11 135 -50 28 -34 41 -79 35 -127 l-3
-29 -169 -12 c-186 -14 -269 -31 -332 -68 -99 -58 -153 -163 -140 -272 13
-109 62 -182 158 -234 61 -33 67 -34 173 -34 105 0 114 2 178 33 38 19 79 48
95 68 15 19 30 34 35 34 4 0 7 -29 7 -65 l0 -65 135 0 135 0 0 373 c0 434 -2
444 -79 529 -54 59 -126 99 -209 117 -69 14 -233 13 -297 -3z m312 -636 c-7
-76 -31 -117 -90 -154 -55 -34 -135 -45 -191 -26 -71 23 -105 97 -73 159 27
55 103 76 291 80 l69 1 -6 -60z"/>
<path d="M6775 1351 c-85 -25 -133 -52 -190 -108 -119 -117 -169 -310 -135
-521 31 -188 149 -328 317 -377 218 -62 465 7 560 159 31 48 63 139 63 178 l0
28 -129 0 -128 0 -6 -27 c-9 -46 -50 -97 -97 -121 -36 -18 -57 -23 -103 -20
-78 6 -130 43 -171 123 -29 57 -31 66 -31 180 0 104 3 127 23 170 45 98 99
135 196 135 58 0 69 -4 108 -33 31 -23 49 -49 65 -87 l22 -55 121 -3 c142 -3
143 -3 117 95 -38 145 -144 249 -293 287 -82 21 -231 20 -309 -3z"/>
<path d="M10591 1354 c-153 -41 -266 -159 -317 -329 -22 -74 -25 -265 -5 -345
41 -165 158 -292 310 -335 126 -36 296 -26 408 25 107 49 194 150 217 253 l6
27 -128 0 -129 0 -24 -37 c-69 -105 -259 -112 -343 -12 -34 40 -51 79 -60 137
l-6 42 350 0 350 0 0 54 c0 163 -44 302 -125 393 -56 64 -116 100 -204 125
-80 22 -222 23 -300 2z m236 -205 c18 -6 48 -28 67 -50 37 -44 65 -124 49
-140 -6 -6 -90 -8 -209 -7 -229 3 -224 1 -179 94 51 105 149 142 272 103z"/>
<path d="M12622 1351 c-152 -44 -261 -163 -309 -341 -19 -70 -21 -248 -4 -320
44 -179 165 -311 321 -348 290 -69 567 56 615 275 l7 33 -131 0 c-78 0 -131
-4 -131 -10 0 -21 -64 -80 -105 -96 -68 -25 -163 -16 -217 22 -51 35 -98 119
-98 176 l0 38 346 0 347 0 -6 108 c-4 59 -13 130 -21 158 -42 156 -171 280
-324 313 -78 16 -217 12 -290 -8z m259 -207 c39 -19 87 -78 100 -123 21 -72
24 -71 -200 -71 -125 0 -202 4 -206 10 -4 6 1 33 10 59 18 56 87 127 132 137
15 3 33 7 38 9 18 6 99 -7 126 -21z"/>
<path d="M14165 1351 c-83 -25 -144 -62 -203 -124 -85 -90 -118 -175 -128
-332 -13 -183 30 -325 131 -430 97 -101 196 -139 365 -139 162 0 259 35 353
127 60 58 107 142 128 227 17 71 17 259 -1 330 -43 176 -169 306 -334 345 -84
20 -236 18 -311 -4z m241 -207 c47 -22 100 -87 118 -143 50 -159 13 -356 -80
-428 -30 -22 -49 -28 -106 -31 -61 -4 -73 -1 -108 22 -85 56 -126 169 -117
318 11 171 93 277 215 278 24 0 59 -7 78 -16z"/>
<path d="M15473 1360 c-22 -5 -60 -18 -83 -30 -42 -21 -130 -103 -130 -121 0
-5 -4 -9 -10 -9 -6 0 -10 32 -10 75 l0 75 -135 0 -135 0 0 -670 0 -671 138 3
137 3 3 238 2 239 46 -51 c26 -29 69 -62 102 -78 52 -26 67 -28 167 -28 100 0
115 3 167 28 151 74 237 246 238 480 1 232 -82 409 -223 481 -78 39 -185 53
-274 36z m99 -249 c36 -23 53 -44 78 -95 29 -59 33 -75 33 -158 1 -63 -5 -109
-16 -144 -66 -195 -286 -220 -382 -44 -25 48 -30 68 -33 151 -5 118 13 187 62
245 46 53 88 73 157 74 44 0 64 -6 101 -29z"/>
<path d="M16402 1351 c-154 -44 -270 -174 -312 -351 -8 -30 -14 -102 -13 -160
1 -175 41 -288 138 -385 59 -59 123 -96 195 -113 290 -69 567 56 615 275 l7
33 -131 0 c-78 0 -131 -4 -131 -10 0 -21 -64 -80 -105 -96 -68 -25 -163 -16
-217 22 -51 35 -98 119 -98 176 l0 38 347 0 346 0 -6 108 c-11 172 -39 248
-126 344 -88 96 -198 139 -356 137 -54 0 -115 -7 -153 -18z m259 -207 c40 -20
87 -79 99 -125 19 -71 24 -69 -199 -69 -125 0 -202 4 -206 10 -4 6 1 33 10 59
18 56 87 127 132 137 15 3 33 7 38 9 18 6 99 -7 126 -21z"/>
<path d="M17625 1361 c-71 -18 -107 -47 -149 -121 l-26 -45 0 78 0 77 -135 0
-135 0 0 -505 0 -506 138 3 137 3 5 327 5 326 30 43 c45 64 93 84 193 83 l82
-1 0 117 0 118 -31 6 c-38 7 -74 6 -114 -3z"/>
<path d="M1112 963 l3 -388 26 -56 c49 -105 142 -171 264 -188 62 -9 156 -2
200 15 43 16 103 67 131 111 l29 47 5 -80 5 -79 133 -3 132 -3 0 506 0 505
-135 0 -135 0 0 -272 c0 -319 -8 -386 -47 -442 -78 -110 -249 -106 -314 8 -24
41 -24 45 -27 374 l-3 332 -135 0 -135 0 3 -387z"/>
<path d="M11354 1078 c52 -150 130 -376 173 -503 l79 -230 159 0 159 0 77 225
c43 124 120 350 173 503 l95 278 -146 -3 -146 -3 -23 -80 c-12 -44 -57 -210
-100 -368 -84 -312 -87 -318 -116 -202 -12 46 -147 538 -175 638 -5 15 -21 17
-154 17 l-148 0 93 -272z"/>
</g>
</svg>
