<svg width="586" height="559" xmlns="http://www.w3.org/2000/svg" xmlns:svg="http://www.w3.org/2000/svg">
  <defs>
    <style>.cls-1{fill:#fc6d26;}.cls-2{fill:#e24329;}.cls-3{fill:#fca326;}</style>
  </defs>
  <title>gitlab</title>
  <g>
    <title>Layer 1</title>
    <g id="g44"/>
    <g id="g48"/>
    <g id="g56"/>
    <g id="g64"/>
    <g id="g72"/>
    <g id="g76"/>
    <g id="g80"/>
    <g id="g84"/>
    <g stroke="null" id="svg_1">
      <path fill="black" d="m583.72067,319.490134l-32.690107,-104.093964l-64.688725,-206.468551a11.184822,11.587886 0 0 0 -21.211402,0l-64.688725,206.34318l-214.931834,0l-64.688725,-206.34318a11.167535,11.569976 0 0 0 -21.194115,0l-64.585002,206.34318l-32.690107,104.219335a22.265922,23.068311 0 0 0 8.055838,25.772749l282.593959,212.737114l282.542097,-212.737114a22.300496,23.104132 0 0 0 8.176849,-25.772749" class="cls-1" id="path46"/>
      <path stroke="null" d="m293.001724,557.838805l0,0l107.457273,-342.585916l-214.862685,0l107.405412,342.585916z" class="cls-2" id="path50"/>
      <path stroke="null" d="m293.001724,557.838805l-107.491848,-342.585916l-150.398694,0l257.890542,342.585916z" class="cls-1" id="path58"/>
      <path stroke="null" d="m34.990172,215.36035l0,0l-32.690107,104.093964a22.265922,23.068311 0 0 0 8.055838,25.772749l282.645821,212.772934l-258.011552,-342.639647z" class="cls-3" id="path66"/>
      <path stroke="null" d="m35.042034,215.36035l150.588853,0l-64.809736,-206.32527a11.184822,11.587886 0 0 0 -21.211402,0l-64.567715,206.32527z" class="cls-2" id="path74"/>
      <path stroke="null" d="m293.001724,557.838805l107.457273,-342.585916l150.640714,0l-258.097988,342.585916z" class="cls-1" id="path78"/>
      <path stroke="null" d="m550.995989,215.36035l0,0l32.690107,104.093964a22.21406,23.014581 0 0 1 -8.055838,25.772749l-282.628534,212.611743l257.925116,-342.478455l0.069149,0z" class="cls-3" id="path82"/>
      <path stroke="null" d="m551.065138,215.36035l-150.571566,0l64.688725,-206.32527a11.167535,11.569976 0 0 1 21.194115,0l64.688725,206.32527z" class="cls-2" id="path86"/>
    </g>
  </g>
</svg>
